<svg width="26" height="32" viewBox="0 0 26 32" fill="none" xmlns="http://www.w3.org/2000/svg">
<path d="M11.7485 31.3722C12.0164 31.5635 12.3375 31.6664 12.6668 31.6664C12.9961 31.6664 13.3172 31.5635 13.5851 31.3722C14.0665 31.0317 25.3794 22.8633 25.3335 12.6667C25.3335 5.68258 19.6509 0 12.6668 0C5.68272 0 0.000139393 5.68258 0.000139393 12.6587C-0.0457773 22.8633 11.2671 31.0317 11.7485 31.3722ZM12.6668 3.16667C17.9061 3.16667 22.1668 7.42742 22.1668 12.6746C22.2001 19.7014 15.2191 26.011 12.6668 28.0804C10.1161 26.0094 3.13356 19.6982 3.16681 12.6667C3.16681 7.42742 7.42756 3.16667 12.6668 3.16667Z" fill="#2091F9"/>
</svg>
